<svg xmlns="http://www.w3.org/2000/svg" width="338" height="140" viewBox="0 0 338 140">
    <path fill="#CAB08D" fill-rule="evenodd" d="M79.557 92.366h18.929v14.131H79.557v31.631h-17.43v-31.63H0V96.296L61.097 1.872h18.46v90.494zm-59.879 0h42.45V25.548l-2.062 3.743-40.388 63.075zm192.005-12.353c0 20.277-3.467 35.343-10.401 45.2-6.934 9.858-17.773 14.787-32.516 14.787-14.556 0-25.332-4.82-32.33-14.459-6.996-9.639-10.62-24.035-10.869-43.188V59.238c0-20.027 3.467-34.906 10.401-44.64C142.903 4.867 153.773 0 168.578 0c14.681 0 25.489 4.695 32.423 14.084 6.934 9.39 10.495 23.88 10.682 43.47v22.46zm-17.335-23.676c0-14.661-2.062-25.345-6.185-32.052-4.123-6.707-10.651-10.06-19.585-10.06-8.87 0-15.336 3.337-19.397 10.013-4.06 6.676-6.153 16.938-6.278 30.789v27.7c0 14.724 2.14 25.595 6.419 32.614 4.279 7.019 10.76 10.528 19.444 10.528 8.558 0 14.915-3.307 19.069-9.92 4.154-6.613 6.325-17.032 6.513-31.256V56.337zm124.723 36.03H338v14.13h-18.929v31.631h-17.43v-31.63h-62.127V96.296l61.097-94.425h18.46v90.494zm-59.878 0h42.449V25.547l-2.062 3.743-40.387 63.075z"/>
</svg>
