<svg xmlns="http://www.w3.org/2000/svg" xmlns:xlink="http://www.w3.org/1999/xlink" width="50" height="40" viewBox="0 0 50 40">
    <defs>
        <path id="b" d="M17.333 17.578L3.778 31.333a2.184 2.184 0 0 1-3.122 0 2.264 2.264 0 0 1 0-3.168l11.994-12.17L.656 3.824a2.264 2.264 0 0 1 0-3.169 2.185 2.185 0 0 1 3.123 0l13.554 13.755a2.25 2.25 0 0 1 .647 1.583 2.25 2.25 0 0 1-.647 1.584z"/>
        <filter id="a" width="116.7%" height="109.4%" x="-8.3%" y="-4.7%" filterUnits="objectBoundingBox">
            <feOffset in="SourceAlpha" result="shadowOffsetOuter1"/>
            <feGaussianBlur in="shadowOffsetOuter1" result="shadowBlurOuter1" stdDeviation=".5"/>
            <feColorMatrix in="shadowBlurOuter1" values="0 0 0 0 0 0 0 0 0 0 0 0 0 0 0 0 0 0 0.2 0"/>
        </filter>
    </defs>
    <g fill="none" fill-rule="nonzero" transform="matrix(-1 0 0 1 48 4)">
        <use fill="#000" filter="url(#a)" xlink:href="#b"/>
        <use fill="#333" fill-rule="evenodd" xlink:href="#b"/>
    </g>
</svg>
