<?xml version="1.0" encoding="UTF-8"?>
<svg width="227px" height="50px" viewBox="0 0 227 50" version="1.1" xmlns="http://www.w3.org/2000/svg" xmlns:xlink="http://www.w3.org/1999/xlink">
    <!-- Generator: Sketch 46 (44423) - http://www.bohemiancoding.com/sketch -->
    <title>Bambet_logo_01</title>
    <desc>Created with Sketch.</desc>
    <defs></defs>
    <g id="Symbols" stroke="none" stroke-width="1" fill="none" fill-rule="evenodd">
        <g id="menu/top" transform="translate(-607.000000, -20.000000)">
            <g id="Bambet_logo_01" transform="translate(607.000000, 20.000000)">
                <path d="M20.501,26.593 C19.212,25.165 17.983,24.121 16.8,23.433 C19.153,21.755 21.565,18.562 24.104,13.77 C24.855,12.352 25.612,11.113 26.374,10.05 C27.135,11.113 27.892,12.352 28.644,13.77 C31.182,18.562 33.595,21.755 35.948,23.433 C34.765,24.121 33.535,25.165 32.246,26.593 C31.128,27.83 29.181,30.504 26.374,34.656 C23.566,30.504 21.62,27.83 20.501,26.593 Z M47.124,0.234 L47.124,44.168 L32.642,44.168 C31.701,42.714 30.81,41.345 29.972,40.069 C34.063,33.771 36.804,29.885 38.135,28.503 C39.887,26.679 41.87,25.793 44.203,25.793 L45.26,25.793 L45.26,21.259 L44.203,21.259 C40.23,21.259 36.489,17.915 33.092,11.318 C32.108,9.41 31.093,7.751 30.05,6.333 C31.092,5.671 32.138,5.33 33.185,5.33 L40.579,5.33 L40.579,0.234 L32.253,0.234 C30.226,0.234 28.263,0.974 26.374,2.438 C24.484,0.974 22.521,0.234 20.495,0.234 L12.168,0.234 L12.168,5.33 L19.563,5.33 C20.609,5.33 21.655,5.671 22.697,6.333 C21.655,7.751 20.64,9.41 19.655,11.318 C16.258,17.915 12.517,21.259 8.545,21.259 L7.487,21.259 L7.487,25.793 L8.545,25.793 C10.878,25.793 12.861,26.679 14.612,28.503 C15.943,29.885 18.684,33.771 22.775,40.069 C21.938,41.345 21.046,42.714 20.106,44.168 L5.623,44.168 L5.623,0.234 L0.025,0.234 L0.025,49.766 L23.799,49.766 C23.799,49.766 25.647,46.827 26.374,45.682 C27.1,46.827 28.948,49.766 28.948,49.766 L52.722,49.766 L52.722,0.234 L47.124,0.234 L47.124,0.234 Z" id="Fill-1" fill="#B01A13"></path>
                <path d="M65.624,27.926 C67.085,28.392 68.858,28.624 70.946,28.624 C76.564,28.624 79.373,25.422 79.373,19.017 C79.373,13.608 76.829,10.902 71.74,10.902 C69.428,10.902 67.39,11.336 65.624,12.203 L65.624,27.926 Z M61.17,0.234 L64.007,0.234 L65.624,8.254 C67.534,7.452 69.581,7.05 71.764,7.05 C79.758,7.05 83.755,11.095 83.755,19.186 C83.755,27.95 79.557,32.333 71.162,32.333 C67.534,32.333 64.203,31.987 61.17,31.297 L61.17,0.234 L61.17,0.234 Z" id="Fill-2" fill="#000000"></path>
                <path d="M98.829,20.534 C94.96,20.534 93.026,21.899 93.026,24.627 C93.026,27.357 94.55,28.721 97.601,28.721 C100.683,28.721 103.291,27.902 105.426,26.265 L105.426,21.016 C103.227,20.695 101.028,20.534 98.829,20.534 Z M88.571,24.699 C88.571,19.515 91.99,16.922 98.829,16.922 C101.028,16.922 103.227,17.083 105.426,17.404 L105.426,15.02 C105.426,12.115 103.154,10.662 98.612,10.662 C96.011,10.662 93.347,11.063 90.618,11.866 L90.618,8.254 C93.347,7.452 96.011,7.05 98.612,7.05 C106.124,7.05 109.881,9.667 109.881,14.9 L109.881,32.333 L107.376,32.333 L105.835,29.828 C103.315,31.498 100.57,32.333 97.601,32.333 C91.581,32.333 88.571,29.788 88.571,24.699 L88.571,24.699 Z" id="Fill-3" fill="#000000"></path>
                <path d="M117.104,32.333 L117.104,7.05 L120.114,7.05 L120.86,10.228 C123.284,8.109 125.925,7.05 128.782,7.05 C132.442,7.05 134.938,8.206 136.271,10.517 C139.016,8.206 141.801,7.05 144.626,7.05 C150.437,7.05 153.343,10.252 153.343,16.657 L153.343,32.333 L148.888,32.333 L148.888,16.417 C148.888,12.644 147.299,10.758 144.12,10.758 C141.745,10.758 139.522,11.85 137.451,14.033 L137.451,32.333 L132.996,32.333 L132.996,16.489 C132.996,12.669 131.423,10.758 128.277,10.758 C125.772,10.758 123.533,11.85 121.559,14.033 L121.559,32.333 L117.104,32.333" id="Fill-4" fill="#000000"></path>
                <path d="M165.021,27.926 C166.481,28.392 168.255,28.624 170.342,28.624 C175.96,28.624 178.77,25.422 178.77,19.017 C178.77,13.608 176.225,10.902 171.137,10.902 C168.825,10.902 166.786,11.336 165.021,12.203 L165.021,27.926 Z M160.566,0.234 L163.403,0.234 L165.021,8.254 C166.931,7.452 168.977,7.05 171.161,7.05 C179.155,7.05 183.152,11.095 183.152,19.186 C183.152,27.95 178.954,32.333 170.559,32.333 C166.931,32.333 163.6,31.987 160.566,31.297 L160.566,0.234 L160.566,0.234 Z" id="Fill-5" fill="#000000"></path>
                <path d="M192.422,17.259 L206.099,17.259 C206.003,12.829 203.835,10.613 199.598,10.613 C195.103,10.613 192.711,12.829 192.422,17.259 Z M199.598,7.05 C206.789,7.05 210.385,10.606 210.385,17.717 C210.385,18.728 210.313,19.812 210.168,20.967 L192.422,20.967 C192.422,26.136 195.44,28.721 201.476,28.721 C204.349,28.721 206.901,28.4 209.133,27.757 L209.133,31.369 C206.901,32.012 204.188,32.333 200.994,32.333 C192.31,32.333 187.968,28.022 187.968,19.402 C187.968,11.167 191.844,7.05 199.598,7.05 L199.598,7.05 Z" id="Fill-6" fill="#000000"></path>
                <path d="M216.381,0.234 L219.174,0.234 L220.137,7.05 L226.975,7.05 L226.975,10.662 L220.835,10.662 L220.835,25.181 C220.835,27.541 221.854,28.721 223.893,28.721 L226.975,28.721 L226.975,32.333 L222.737,32.333 C218.499,32.333 216.381,30.061 216.381,25.518 L216.381,0.234" id="Fill-7" fill="#000000"></path>
                <path d="M68.556,42.294 C68.652,42.39 68.7,42.509 68.7,42.65 L68.7,49.169 C68.7,49.311 68.65,49.429 68.551,49.525 C68.451,49.621 68.334,49.67 68.199,49.67 C68.058,49.67 67.939,49.621 67.843,49.525 C67.747,49.429 67.699,49.311 67.699,49.169 L67.699,44.383 L65.368,49.131 C65.259,49.298 65.115,49.381 64.935,49.381 C64.723,49.381 64.569,49.281 64.473,49.082 L62.171,44.469 L62.171,49.169 C62.171,49.311 62.123,49.429 62.027,49.525 C61.93,49.621 61.812,49.67 61.671,49.67 C61.529,49.67 61.41,49.621 61.314,49.525 C61.218,49.429 61.17,49.311 61.17,49.169 L61.17,42.65 C61.17,42.509 61.218,42.39 61.314,42.294 C61.41,42.197 61.529,42.149 61.671,42.149 C61.863,42.149 62.011,42.239 62.114,42.419 L64.973,48.148 L67.756,42.419 C67.859,42.239 68.007,42.149 68.199,42.149 C68.34,42.149 68.459,42.197 68.556,42.294" id="Fill-8" fill="#000000"></path>
                <path d="M78.311,47.185 L76.934,43.757 L75.528,47.185 L78.311,47.185 Z M80.15,49.179 C80.15,49.313 80.102,49.429 80.006,49.525 C79.909,49.621 79.79,49.67 79.649,49.67 C79.553,49.67 79.462,49.643 79.375,49.588 C79.288,49.533 79.226,49.458 79.187,49.362 L78.648,48.013 L75.191,48.013 L74.642,49.362 C74.597,49.458 74.533,49.533 74.449,49.588 C74.366,49.643 74.276,49.67 74.18,49.67 C74.038,49.67 73.921,49.62 73.828,49.521 C73.735,49.421 73.688,49.304 73.688,49.169 C73.688,49.105 73.704,49.031 73.737,48.947 L76.443,42.486 C76.539,42.261 76.696,42.149 76.914,42.149 C77.146,42.149 77.303,42.261 77.386,42.486 L80.102,48.967 C80.134,49.05 80.15,49.121 80.15,49.179 L80.15,49.179 Z" id="Fill-9" fill="#000000"></path>
                <path d="M87.473,41.287 C87.207,41.175 86.998,41.019 86.847,40.82 C86.697,40.621 86.621,40.403 86.621,40.165 C86.621,40.03 86.663,39.918 86.746,39.828 C86.83,39.738 86.932,39.693 87.054,39.693 C87.176,39.693 87.279,39.738 87.363,39.828 C87.446,39.918 87.488,40.03 87.488,40.165 C87.488,40.332 87.571,40.47 87.738,40.579 C87.905,40.688 88.114,40.743 88.364,40.743 C88.615,40.743 88.823,40.688 88.99,40.579 C89.157,40.47 89.24,40.332 89.24,40.165 C89.24,40.03 89.282,39.918 89.366,39.828 C89.449,39.738 89.552,39.693 89.674,39.693 C89.796,39.693 89.899,39.738 89.982,39.828 C90.065,39.918 90.107,40.03 90.107,40.165 C90.107,40.403 90.032,40.621 89.881,40.82 C89.73,41.019 89.521,41.175 89.255,41.287 C88.988,41.399 88.692,41.455 88.364,41.455 C88.037,41.455 87.74,41.399 87.473,41.287 Z M90.752,49.525 C90.656,49.429 90.608,49.311 90.608,49.169 L90.608,43.719 L86.005,49.496 C85.96,49.548 85.902,49.589 85.831,49.621 C85.761,49.654 85.69,49.67 85.619,49.67 C85.472,49.67 85.348,49.621 85.249,49.525 C85.149,49.429 85.1,49.311 85.1,49.169 L85.1,42.65 C85.1,42.509 85.149,42.39 85.249,42.294 C85.348,42.197 85.472,42.149 85.619,42.149 C85.761,42.149 85.876,42.196 85.966,42.289 C86.056,42.382 86.101,42.502 86.101,42.65 L86.101,48.11 L90.724,42.332 C90.768,42.28 90.826,42.237 90.897,42.202 C90.967,42.167 91.038,42.149 91.108,42.149 C91.256,42.149 91.377,42.196 91.47,42.289 C91.563,42.382 91.609,42.502 91.609,42.65 L91.609,49.169 C91.609,49.311 91.563,49.429 91.47,49.525 C91.377,49.621 91.256,49.67 91.108,49.67 C90.967,49.67 90.848,49.621 90.752,49.525 L90.752,49.525 Z" id="Fill-10" fill="#000000"></path>
                <path d="M98.875,49.255 C98.307,48.915 97.859,48.45 97.532,47.859 C97.204,47.269 97.04,46.617 97.04,45.904 C97.04,45.198 97.204,44.552 97.532,43.964 C97.859,43.376 98.307,42.911 98.875,42.568 C99.443,42.224 100.071,42.053 100.757,42.053 C101.245,42.053 101.668,42.117 102.024,42.245 C102.38,42.374 102.741,42.585 103.107,42.881 C103.184,42.939 103.236,42.998 103.261,43.059 C103.287,43.12 103.3,43.192 103.3,43.276 C103.3,43.404 103.253,43.51 103.16,43.593 C103.067,43.677 102.959,43.719 102.838,43.719 C102.716,43.719 102.603,43.677 102.501,43.593 C102.237,43.369 101.98,43.207 101.73,43.107 C101.48,43.007 101.155,42.958 100.757,42.958 C100.257,42.958 99.796,43.09 99.376,43.353 C98.955,43.616 98.621,43.974 98.374,44.427 C98.127,44.879 98.003,45.372 98.003,45.904 C98.003,46.444 98.127,46.938 98.374,47.388 C98.621,47.837 98.955,48.193 99.376,48.457 C99.796,48.72 100.257,48.851 100.757,48.851 C101.374,48.851 101.964,48.639 102.529,48.216 C102.638,48.139 102.744,48.1 102.847,48.1 C102.969,48.1 103.07,48.144 103.15,48.23 C103.231,48.317 103.271,48.431 103.271,48.572 C103.271,48.707 103.219,48.825 103.117,48.928 C102.423,49.487 101.637,49.766 100.757,49.766 C100.071,49.766 99.443,49.596 98.875,49.255" id="Fill-11" fill="#000000"></path>
                <path d="M113.849,42.279 C113.936,42.366 113.979,42.477 113.979,42.611 C113.979,42.746 113.936,42.856 113.849,42.943 C113.762,43.03 113.652,43.073 113.517,43.073 L111.446,43.073 L111.446,49.169 C111.446,49.311 111.398,49.429 111.302,49.525 C111.206,49.621 111.087,49.67 110.946,49.67 C110.804,49.67 110.686,49.621 110.589,49.525 C110.493,49.429 110.445,49.311 110.445,49.169 L110.445,43.073 L108.365,43.073 C108.23,43.073 108.119,43.03 108.033,42.943 C107.946,42.856 107.903,42.746 107.903,42.611 C107.903,42.477 107.946,42.366 108.033,42.279 C108.119,42.192 108.23,42.149 108.365,42.149 L113.517,42.149 C113.652,42.149 113.762,42.192 113.849,42.279" id="Fill-12" fill="#000000"></path>
                <path d="M119.083,49.525 C118.987,49.429 118.939,49.311 118.939,49.169 L118.939,42.65 C118.939,42.502 118.987,42.382 119.083,42.289 C119.179,42.196 119.298,42.149 119.44,42.149 L123.792,42.149 C123.94,42.149 124.058,42.192 124.148,42.279 C124.238,42.366 124.283,42.48 124.283,42.621 C124.283,42.756 124.238,42.865 124.148,42.948 C124.058,43.032 123.94,43.073 123.792,43.073 L119.94,43.073 L119.94,45.413 L122.704,45.413 C122.845,45.413 122.962,45.457 123.055,45.543 C123.148,45.63 123.195,45.741 123.195,45.875 C123.195,46.011 123.148,46.121 123.055,46.208 C122.962,46.294 122.845,46.338 122.704,46.338 L119.94,46.338 L119.94,48.745 L123.792,48.745 C123.94,48.745 124.058,48.787 124.148,48.871 C124.238,48.954 124.283,49.063 124.283,49.198 C124.283,49.339 124.238,49.453 124.148,49.54 C124.058,49.626 123.94,49.67 123.792,49.67 L119.44,49.67 C119.298,49.67 119.179,49.621 119.083,49.525" id="Fill-13" fill="#000000"></path>
                <path d="M131.958,46.136 C132.394,46.136 132.754,45.996 133.037,45.717 C133.319,45.438 133.46,45.079 133.46,44.643 C133.46,44.187 133.319,43.812 133.037,43.516 C132.754,43.221 132.394,43.073 131.958,43.073 L130.533,43.073 L130.533,46.136 L131.958,46.136 Z M129.676,49.525 C129.579,49.429 129.531,49.311 129.531,49.169 L129.531,42.65 C129.531,42.502 129.579,42.382 129.676,42.289 C129.772,42.196 129.891,42.149 130.032,42.149 L131.958,42.149 C132.433,42.149 132.858,42.255 133.234,42.467 C133.609,42.678 133.901,42.974 134.11,43.353 C134.319,43.731 134.423,44.161 134.423,44.643 C134.423,45.111 134.319,45.529 134.11,45.895 C133.901,46.261 133.609,46.546 133.234,46.752 C132.858,46.958 132.433,47.06 131.958,47.06 L130.533,47.06 L130.533,49.169 C130.533,49.311 130.486,49.429 130.393,49.525 C130.3,49.621 130.179,49.67 130.032,49.67 C129.891,49.67 129.772,49.621 129.676,49.525 L129.676,49.525 Z" id="Fill-14" fill="#000000"></path>
                <path d="M139.527,49.525 C139.431,49.429 139.382,49.311 139.382,49.169 L139.382,42.65 C139.382,42.502 139.431,42.382 139.527,42.289 C139.623,42.196 139.742,42.149 139.883,42.149 C140.031,42.149 140.151,42.196 140.244,42.289 C140.337,42.382 140.384,42.502 140.384,42.65 L140.384,45.413 L144.852,45.413 L144.852,42.65 C144.852,42.502 144.9,42.382 144.997,42.289 C145.093,42.196 145.212,42.149 145.353,42.149 C145.494,42.149 145.611,42.196 145.705,42.289 C145.798,42.382 145.844,42.502 145.844,42.65 L145.844,49.169 C145.844,49.316 145.798,49.437 145.705,49.53 C145.611,49.623 145.494,49.67 145.353,49.67 C145.212,49.67 145.093,49.621 144.997,49.525 C144.9,49.429 144.852,49.311 144.852,49.169 L144.852,46.299 L140.384,46.299 L140.384,49.169 C140.384,49.311 140.337,49.429 140.244,49.525 C140.151,49.621 140.031,49.67 139.883,49.67 C139.742,49.67 139.623,49.621 139.527,49.525" id="Fill-15" fill="#000000"></path>
                <path d="M155.667,43.073 L153.846,43.073 C153.397,43.073 153.034,43.198 152.758,43.449 C152.482,43.7 152.344,44.056 152.344,44.518 C152.344,44.948 152.482,45.284 152.758,45.524 C153.034,45.765 153.397,45.885 153.846,45.885 L155.667,45.885 L155.667,43.073 Z M156.528,42.289 C156.621,42.382 156.668,42.502 156.668,42.65 L156.668,49.169 C156.668,49.311 156.621,49.429 156.528,49.525 C156.435,49.621 156.315,49.67 156.167,49.67 C156.026,49.67 155.907,49.621 155.811,49.525 C155.715,49.429 155.667,49.311 155.667,49.169 L155.667,46.771 L153.962,46.771 L152.315,49.429 C152.213,49.589 152.068,49.67 151.882,49.67 C151.734,49.67 151.617,49.626 151.53,49.54 C151.444,49.453 151.401,49.345 151.401,49.217 C151.401,49.108 151.433,49.002 151.497,48.899 L152.961,46.55 C152.473,46.402 152.087,46.148 151.805,45.789 C151.522,45.43 151.381,45.006 151.381,44.518 C151.381,44.062 151.485,43.654 151.694,43.295 C151.903,42.936 152.195,42.655 152.57,42.452 C152.946,42.25 153.371,42.149 153.846,42.149 L156.167,42.149 C156.315,42.149 156.435,42.196 156.528,42.289 L156.528,42.289 Z" id="Fill-16" fill="#000000"></path>
                <path d="M176.505,42.294 C176.602,42.39 176.65,42.509 176.65,42.65 L176.65,49.169 C176.65,49.311 176.6,49.429 176.5,49.525 C176.401,49.621 176.284,49.67 176.149,49.67 C176.008,49.67 175.889,49.621 175.793,49.525 C175.696,49.429 175.648,49.311 175.648,49.169 L175.648,44.383 L173.318,49.131 C173.208,49.298 173.064,49.381 172.884,49.381 C172.673,49.381 172.519,49.281 172.422,49.082 L170.121,44.469 L170.121,49.169 C170.121,49.311 170.072,49.429 169.976,49.525 C169.88,49.621 169.761,49.67 169.62,49.67 C169.479,49.67 169.36,49.621 169.264,49.525 C169.167,49.429 169.119,49.311 169.119,49.169 L169.119,42.65 C169.119,42.509 169.167,42.39 169.264,42.294 C169.36,42.197 169.479,42.149 169.62,42.149 C169.812,42.149 169.96,42.239 170.063,42.419 L172.923,48.148 L175.706,42.419 C175.809,42.239 175.956,42.149 176.149,42.149 C176.29,42.149 176.409,42.197 176.505,42.294" id="Fill-17" fill="#000000"></path>
                <path d="M182.572,49.525 C182.476,49.429 182.427,49.311 182.427,49.169 L182.427,42.65 C182.427,42.502 182.476,42.382 182.572,42.289 C182.668,42.196 182.787,42.149 182.928,42.149 L187.281,42.149 C187.428,42.149 187.547,42.192 187.637,42.279 C187.727,42.366 187.772,42.48 187.772,42.621 C187.772,42.756 187.727,42.865 187.637,42.948 C187.547,43.032 187.428,43.073 187.281,43.073 L183.429,43.073 L183.429,45.413 L186.193,45.413 C186.334,45.413 186.451,45.457 186.544,45.543 C186.637,45.63 186.684,45.741 186.684,45.875 C186.684,46.011 186.637,46.121 186.544,46.208 C186.451,46.294 186.334,46.338 186.193,46.338 L183.429,46.338 L183.429,48.745 L187.281,48.745 C187.428,48.745 187.547,48.787 187.637,48.871 C187.727,48.954 187.772,49.063 187.772,49.198 C187.772,49.339 187.727,49.453 187.637,49.54 C187.547,49.626 187.428,49.67 187.281,49.67 L182.928,49.67 C182.787,49.67 182.668,49.621 182.572,49.525" id="Fill-18" fill="#000000"></path>
                <path d="M197.306,48.394 C197.582,48.159 197.72,47.827 197.72,47.397 C197.72,46.967 197.583,46.645 197.311,46.429 C197.038,46.214 196.673,46.107 196.217,46.107 L194.022,46.107 L194.022,48.745 L196.217,48.745 C196.667,48.745 197.029,48.628 197.306,48.394 Z M197.494,45.514 C197.869,45.697 198.161,45.953 198.37,46.28 C198.578,46.607 198.683,46.98 198.683,47.397 C198.683,47.834 198.578,48.225 198.37,48.572 C198.161,48.918 197.869,49.188 197.494,49.381 C197.118,49.574 196.692,49.67 196.217,49.67 L193.521,49.67 C193.38,49.67 193.261,49.621 193.165,49.525 C193.069,49.429 193.02,49.311 193.02,49.169 L193.02,42.65 C193.02,42.502 193.069,42.382 193.165,42.289 C193.261,42.196 193.38,42.149 193.521,42.149 L197.604,42.149 C197.733,42.149 197.84,42.192 197.927,42.279 C198.014,42.366 198.057,42.48 198.057,42.621 C198.057,42.749 198.014,42.856 197.927,42.943 C197.84,43.03 197.733,43.073 197.604,43.073 L194.022,43.073 L194.022,45.24 L196.217,45.24 C196.692,45.24 197.118,45.331 197.494,45.514 L197.494,45.514 Z" id="Fill-19" fill="#000000"></path>
                <path d="M209.719,49.188 C209.719,49.323 209.674,49.437 209.584,49.53 C209.494,49.623 209.378,49.67 209.237,49.67 C209.141,49.67 209.049,49.643 208.963,49.588 C208.876,49.533 208.813,49.458 208.775,49.362 L206.521,43.805 L204.21,49.362 C204.165,49.458 204.101,49.533 204.018,49.588 C203.934,49.643 203.844,49.67 203.748,49.67 C203.607,49.67 203.49,49.62 203.396,49.521 C203.303,49.421 203.257,49.304 203.257,49.169 C203.257,49.105 203.273,49.031 203.305,48.947 L206.011,42.486 C206.107,42.261 206.264,42.149 206.483,42.149 C206.714,42.149 206.871,42.261 206.955,42.486 L209.671,48.967 C209.703,49.05 209.719,49.124 209.719,49.188" id="Fill-20" fill="#000000"></path>
                <path d="M214.871,49.525 C214.774,49.429 214.726,49.311 214.726,49.169 L214.726,42.65 C214.726,42.502 214.774,42.382 214.871,42.289 C214.967,42.196 215.086,42.149 215.227,42.149 C215.374,42.149 215.495,42.196 215.588,42.289 C215.681,42.382 215.727,42.502 215.727,42.65 L215.727,49.169 C215.727,49.311 215.681,49.429 215.588,49.525 C215.495,49.621 215.374,49.67 215.227,49.67 C215.086,49.67 214.967,49.621 214.871,49.525" id="Fill-21" fill="#000000"></path>
                <path d="M224.51,48.745 C224.959,48.745 225.322,48.628 225.598,48.394 C225.874,48.159 226.012,47.827 226.012,47.397 C226.012,46.999 225.875,46.694 225.603,46.482 C225.33,46.27 224.966,46.165 224.51,46.165 L222.507,46.165 L222.507,48.745 L224.51,48.745 Z M224.308,45.24 C224.686,45.24 224.989,45.147 225.217,44.961 C225.445,44.774 225.559,44.505 225.559,44.152 C225.559,43.799 225.445,43.531 225.217,43.348 C224.989,43.165 224.686,43.073 224.308,43.073 L222.507,43.073 L222.507,45.24 L224.308,45.24 Z M221.65,49.525 C221.553,49.429 221.505,49.311 221.505,49.169 L221.505,42.65 C221.505,42.502 221.553,42.382 221.65,42.289 C221.746,42.196 221.865,42.149 222.006,42.149 L224.308,42.149 C224.738,42.149 225.12,42.234 225.453,42.404 C225.787,42.574 226.049,42.812 226.238,43.117 C226.428,43.422 226.522,43.767 226.522,44.152 C226.522,44.466 226.437,44.749 226.267,44.999 C226.097,45.25 225.864,45.452 225.569,45.606 C226.005,45.709 226.349,45.914 226.599,46.222 C226.85,46.531 226.975,46.922 226.975,47.397 C226.975,47.834 226.871,48.225 226.662,48.572 C226.453,48.918 226.161,49.188 225.786,49.381 C225.41,49.574 224.985,49.67 224.51,49.67 L222.006,49.67 C221.865,49.67 221.746,49.621 221.65,49.525 L221.65,49.525 Z" id="Fill-22" fill="#000000"></path>
            </g>
        </g>
    </g>
</svg>