<svg xmlns="http://www.w3.org/2000/svg" width="375" height="683" style="background:#ffe4c0" viewBox="0 0 375 683">
    <g fill="#333" fill-rule="evenodd">
        <path d="M57.987 283.362a3.336 3.336 0 0 0-3.333 3.33 3.337 3.337 0 0 0 3.333 3.332h206.314a3.336 3.336 0 0 0 3.334-3.33 3.336 3.336 0 0 0-3.334-3.332H57.987zm206.314 8.03H57.987a4.707 4.707 0 0 1-4.704-4.699c0-2.592 2.11-4.7 4.704-4.7h206.314a4.707 4.707 0 0 1 4.704 4.7c0 2.59-2.11 4.7-4.704 4.7z"/>
        <path d="M255.608 283.362H66.681v-12.866h1.37v11.497h186.187v-11.796h1.37zM123.927 109.754l-1.368-.082c.014-.24.404-5.9 4.73-8.057l.613 1.225c-3.627 1.807-3.972 6.863-3.975 6.914M149.27 115.229c-5.847-8.512-19.18-13-19.314-13.044l.43-1.3c.566.187 13.909 4.682 20.015 13.569l-1.13.775z"/>
        <path d="M128.103 102.075l-1.3-.432c.007-.023.706-2.17.459-4.913l1.365-.122c.274 3.04-.491 5.37-.524 5.467"/>
        <path d="M116.104 107.34l-.876-1.055c4.488-3.72 11.942-4.748 12.257-4.79l.182 1.357c-.073.01-7.383 1.02-11.563 4.488M132.8 96.773l-1.26-.543c.095-.217 2.366-5.387 7.368-9.36l.853 1.073c-4.736 3.76-6.94 8.78-6.962 8.83M195.623 102.567l-1.282-.484c.144-.382 3.637-9.428 12.696-14.764l.696 1.18c-8.63 5.083-12.076 13.978-12.11 14.068"/>
        <path d="M187.178 113.63l-1.305-.422c2.963-9.173 8.31-11.512 8.537-11.608l.53 1.263-.265-.631.269.629c-.05.022-5.012 2.24-7.766 10.768M161.792 136.565l-1.173-.709c.056-.092 5.663-9.255 15.993-19.384l.96.977c-10.208 10.01-15.725 19.026-15.78 19.116"/>
        <path d="M160.49 136.563c-.02-.043-2.307-4.44-12.71-9.243l.574-1.244c10.934 5.049 13.275 9.693 13.369 9.888l-1.234.595.617-.297-.615.301zM103.587 143c-4.88-3.56-10.354-5.958-10.408-5.981l.546-1.256c.23.1 5.663 2.479 10.67 6.13l-.808 1.107zM227.542 136.002c-.007-.086-.761-8.703-8.365-17.756l1.05-.88c7.904 9.41 8.653 18.164 8.681 18.532l-1.366.104zM128.52 238.826l-1.177-.703c2.81-4.695 5.561-6.845 5.676-6.934l.839 1.083c-.027.02-2.673 2.1-5.338 6.554M195.603 238.42l-1.292-.456c2.215-6.253 8.783-12.314 9.062-12.568l.925 1.009c-.065.06-6.596 6.087-8.695 12.016"/>
        <path d="M190.95 243.7l-1.272-.51c1.169-2.912 4.334-5.386 4.468-5.49l.84 1.083c-.03.023-3.008 2.354-4.037 4.917M193.59 170.8c-.02-.037-2.01-3.83-6.722-9.222l1.033-.9c4.83 5.529 6.823 9.334 6.906 9.493l-1.217.63z"/>
        <path d="M195.614 170.752l-1.282-.484c.094-.25 2.395-6.126 9.631-7.629l.279 1.342c-6.508 1.35-8.607 6.717-8.628 6.77"/>
        <path d="M185.545 178.809l-.984-.954c5.423-5.579 9.519-8.063 9.69-8.165l.707 1.173c-.04.025-4.127 2.508-9.413 7.946"/>
        <path d="M200.241 176.717c-1.684-2.47-3.703-4.44-5.997-5.859l.72-1.164c2.46 1.52 4.617 3.623 6.41 6.252l-1.133.771zM315.696 277.867V73.414l-.128.01-.386.043-.385.054-.386.066-.386.079-.385.09-.386.102-.386.114-.384.127-.386.138-.385.15-.386.163-.385.174-.386.187 6.168-14.38 6.167 14.38-.384-.187-.385-.174-.386-.163-.386-.15-.385-.138-.386-.127-.386-.114-.385-.102-.386-.09-.384-.079-.386-.066-.386-.054-.385-.043-.129-.01v204.453l.129-.01.385-.042.386-.054.386-.066.384-.078.386-.09.385-.103.386-.115.386-.125.385-.139.386-.15.386-.164.385-.173.384-.187-6.167 14.38-6.168-14.38.386.187.385.173.386.164.385.15.386.139.384.125.386.115.386.103.385.09.386.078.386.066.385.054.386.042.128.01zM255.418 340.686H66.855l.01.129.042.384.054.386.067.385.078.386.09.384.103.385.114.385.127.386.139.384.15.386.162.385.175.385.187.385-14.392-6.162 14.392-6.163-.187.386-.175.384-.162.386-.15.385-.14.385-.126.386-.114.384-.103.386-.09.384-.078.386-.067.385-.054.385-.042.385-.01.129h188.563l-.01-.129-.042-.385-.055-.385-.065-.385-.079-.386-.09-.384-.102-.386-.115-.384-.126-.386-.14-.385-.15-.385-.163-.386-.174-.384-.186-.386 14.392 6.163-14.392 6.162.186-.385.174-.385.164-.385.15-.386.14-.384.125-.386.115-.385.101-.385.091-.384.079-.386.065-.385.055-.386.042-.384.01-.129zM93.01 136.537a62.385 62.385 0 0 0-4.536-6.58l1.075-.849c2.74 3.464 4.57 6.612 4.648 6.744l-1.187.685z"/>
        <path d="M85.001 143.116l-.998-.94c3.646-3.869 9.724-6.589 9.982-6.703l.556 1.252c-.061.027-6.086 2.725-9.54 6.391"/>
        <path d="M93.29 135.817c-.104-4.333 2.659-10.054 8.212-17.004l1.07.855c-5.271 6.596-8.007 12.17-7.911 16.116l-1.37.033zM86.75 213.083l-1.251-.558c1.844-4.121 7.915-8.58 8.173-8.767l.807 1.107c-.06.043-6.033 4.43-7.729 8.218"/>
        <path d="M105.655 217.159c-7.547-10.044-11.835-12.21-11.878-12.231l.594-1.235c.183.088 4.577 2.26 12.38 12.644l-1.096.822zM126.565 238.616c-.027-.052-2.743-5.3-6.716-8.815l.908-1.025c4.173 3.69 6.914 8.993 7.029 9.216l-1.22.624zM134.89 178.38c-3.752-6.581-7.566-7.603-7.603-7.612l.332-1.329c.18.045 4.424 1.179 8.461 8.264l-1.19.678z"/>
        <path d="M123.432 176.397l-1.326-.347c.76-2.896 4.954-6.662 5.131-6.82l.913 1.02c-.04.036-4.062 3.65-4.718 6.147M160.403 204.65c-.042-.067-4.333-6.658-9.097-8.73l.548-1.256c5.146 2.239 9.518 8.96 9.701 9.245l-1.152.741z"/>
        <path d="M167.472 210.652c-2.125-3.235-6.518-5.663-6.562-5.687l.658-1.201c.193.105 4.738 2.62 7.05 6.136l-1.146.752z"/>
        <path d="M161.76 204.618l-1.135-.769c.147-.215 3.632-5.308 7.753-7.784l.706 1.173c-3.858 2.32-7.29 7.33-7.325 7.38"/>
        <path d="M154.37 215.26l-1.365-.127c.468-5.042 7.492-11.038 7.791-11.29l.886 1.044c-.069.058-6.895 5.887-7.312 10.373M239.284 209.072c-6.747-4.25-10.991-4.605-11.034-4.608l.095-1.366c.185.014 4.592.358 11.67 4.816l-.73 1.158z"/>
        <path d="M227.187 204.652c-.413-1.122-3.612-5.814-7.168-8.196l.763-1.138c3.82 2.56 7.166 7.433 7.692 8.861l-1.287.473z"/>
        <path d="M228.468 203.633l-1.345-.261c.06-.308 1.493-7.53 3.765-9.79l.967.97c-1.64 1.634-3.001 7.11-3.387 9.081M221.885 212.288l-1.263-.534c2.569-6.066 7.238-7.934 7.435-8.01l.497 1.276c-.042.016-4.337 1.76-6.669 7.268M193.716 238.558c-.055-.09-5.576-8.908-10.653-10.627l.44-1.297c5.542 1.877 11.143 10.822 11.379 11.202l-1.166.722z"/>
        <path d="M202.47 245.316c-2.52-4.44-8.333-6.45-8.39-6.47l.437-1.298c.26.088 6.362 2.192 9.145 7.093l-1.191.675zM183.522 106.354l-.61-1.226c4.604-2.292 10.84-3.376 11.103-3.421l.232 1.35c-.062.01-6.303 1.096-10.725 3.297"/>
        <path d="M193.613 102.83c-.216-.25-.445-.644-.763-1.188-.865-1.482-2.313-3.962-5.198-6.634l.932-1.004c3.035 2.81 4.606 5.503 5.45 6.948.26.444.483.829.615.982l-1.036.895zM198.964 107.816c-1.225-3.235-4.738-4.734-4.773-4.75l.53-1.263c.166.07 4.093 1.748 5.524 5.528l-1.281.485zM140.568 248.56c-5.681-5.07-13.413-9.514-13.49-9.559l.68-1.187c.08.044 7.935 4.56 13.723 9.723l-.913 1.022z"/>
        <path d="M117.456 242.342l-.8-1.112c4.682-3.356 10.559-3.62 10.807-3.63l.053 1.368c-.057.002-5.722.264-10.06 3.374M228.366 136.977l-.19-1.356-.031.007c.098-.034.383-.244.611-.413 1.016-.747 2.903-2.138 6.39-2.684l.213 1.354c-3.156.494-4.804 1.707-5.789 2.433-.496.365-.823.606-1.204.659"/>
        <path d="M221.026 144.811l-1.32-.368c1.963-7.026 8.129-8.736 8.39-8.806l.353 1.324c-.231.062-5.676 1.598-7.423 7.85"/>
        <path d="M235.132 142.994c-2.93-4.009-7.27-6.114-7.313-6.135l.59-1.236c.19.09 4.689 2.267 7.83 6.564l-1.107.807zM128.173 170.55l-1.023-.912c.257-.286 6.302-7.019 9.812-8.449l.518 1.268c-3.22 1.312-9.247 8.025-9.307 8.093M171.963 145.382c-3.914-5.139-11.462-8.301-11.537-8.332l.524-1.266c.323.134 7.968 3.338 12.104 8.769l-1.09.829zM61.303 238.6l-1.278-.493c.084-.217 8.699-21.953 33.744-34.409l.612 1.226C69.83 217.133 61.385 238.387 61.303 238.6M128.23 238.579l-1.29-.465c.092-.255 9.479-25.518 33.92-34.445l.47 1.286c-23.847 8.711-33.01 33.376-33.1 33.624"/>
        <path d="M193.96 238.58c-.09-.249-9.273-24.921-33.101-33.626l.47-1.286c24.441 8.929 33.828 34.192 33.92 34.446l-1.29.465z"/>
        <path d="M195.248 238.579l-1.29-.465c.093-.255 9.48-25.518 33.92-34.445l.47 1.286c-23.846 8.711-33.01 33.376-33.1 33.624"/>
        <path d="M260.98 238.58c-.09-.249-9.273-24.921-33.101-33.626l.47-1.286c24.441 8.929 33.828 34.192 33.92 34.446l-1.29.465zM94.72 272.614l-1.29-.465c.093-.254 9.48-25.517 33.92-34.446l.47 1.286c-23.828 8.705-33.01 33.377-33.1 33.625"/>
        <path d="M160.367 272.396c-.984-2.544-10.27-25.097-33.017-33.406l.47-1.286c23.314 8.517 32.82 31.595 33.826 34.198l-1.279.494zM227.556 272.352c-.09-.248-9.273-24.92-33.101-33.625l.47-1.286c24.441 8.929 33.828 34.191 33.92 34.445l-1.29.466z"/>
        <path d="M161.739 272.352l-1.29-.465c.092-.255 9.479-25.518 33.92-34.446l.47 1.286c-23.846 8.712-33.01 33.377-33.1 33.625M93.486 272.632c-.089-.248-9.23-24.93-33.058-33.635l.471-1.286c24.442 8.929 33.786 34.203 33.878 34.457l-1.29.464zM126.94 238.58c-.09-.249-9.272-24.921-33.1-33.626l.47-1.286c24.44 8.929 33.827 34.192 33.92 34.446l-1.29.465z"/>
        <path d="M94.72 204.542l-1.29-.462c.092-.256 9.463-25.733 33.905-34.663l.47 1.287c-23.845 8.71-32.995 33.588-33.085 33.838M161.74 204.544l-1.29-.465c.092-.255 9.479-25.518 33.919-34.445l.471 1.286c-23.847 8.711-33.01 33.377-33.1 33.624M228.74 204.537l-1.288-.465c.092-.255 9.478-25.517 33.919-34.445l.47 1.286c-23.846 8.711-33.01 33.376-33.1 33.624"/>
        <path d="M160.435 204.328c-.09-.248-9.272-24.92-33.1-33.624l.47-1.286c24.44 8.928 33.828 34.19 33.92 34.445l-1.29.465zM227.47 204.544c-.09-.248-9.273-24.92-33.101-33.625l.47-1.286c24.441 8.929 33.828 34.191 33.92 34.446l-1.29.465z"/>
        <path d="M195.249 170.509l-1.29-.465c.093-.255 9.48-25.518 33.92-34.446l.47 1.287c-23.846 8.71-33.01 33.376-33.1 33.624"/>
        <path d="M260.98 170.51c-.09-.25-9.273-24.921-33.101-33.626l.47-1.286c24.441 8.929 33.828 34.191 33.92 34.446l-1.29.465zM193.96 170.51c-.09-.25-9.273-24.921-33.101-33.626l.47-1.286c24.441 8.929 33.828 34.191 33.92 34.446l-1.29.465z"/>
        <path d="M160.461 136.495c-.09-.248-9.273-24.92-33.1-33.624l.47-1.286c24.44 8.927 33.828 34.19 33.92 34.444l-1.29.466z"/>
        <path d="M161.74 136.474l-1.29-.465c.092-.255 9.479-25.518 33.919-34.446l.471 1.286c-23.847 8.712-33.01 33.377-33.1 33.625M126.925 170.294c-.09-.249-9.272-24.921-33.1-33.626l.47-1.286c24.441 8.93 33.828 34.192 33.92 34.446l-1.29.466z"/>
        <path d="M128.214 170.296l-1.288-.47c.092-.253 9.505-25.279 33.945-34.208l.47 1.287c-23.829 8.705-33.037 33.146-33.127 33.391M227.47 136.474c-.09-.248-9.273-24.92-33.101-33.625l.47-1.286c24.441 8.929 33.828 34.191 33.92 34.445l-1.29.466z"/>
        <path d="M195.254 102.436l-1.287-.472c.092-.251 9.52-25.234 33.958-34.163l.471 1.286c-23.83 8.706-33.051 33.104-33.142 33.35"/>
        <path d="M193.967 102.435c-.09-.245-9.28-24.642-33.108-33.348l.47-1.286c24.44 8.93 33.833 33.913 33.925 34.164l-1.287.47z"/>
        <path d="M128.24 102.462l-1.288-.469c.092-.252 9.467-25.262 33.907-34.191l.47 1.286c-23.847 8.712-33 33.128-33.09 33.374"/>
        <path d="M126.952 102.463c-.09-.246-9.283-24.67-33.111-33.375l.47-1.286c24.44 8.929 33.837 33.938 33.929 34.19l-1.288.47z"/>
        <path d="M94.704 136.26l-1.288-.469c.093-.253 9.485-25.331 33.925-34.26l.47 1.286c-23.827 8.706-33.017 33.196-33.107 33.443"/>
        <path d="M61.304 170.506l-1.292-.458c.09-.256 9.37-25.736 33.813-34.666l.47 1.286c-23.843 8.712-32.902 33.588-32.991 33.838M260.974 102.455c-.089-.245-9.222-24.663-33.048-33.367l.47-1.286c24.44 8.928 33.775 33.933 33.867 34.186l-1.289.467zM61.273 102.456l-1.288-.467c.091-.252 9.416-25.26 33.856-34.187l.47 1.286c-23.846 8.711-32.949 33.123-33.038 33.368"/>
        <path d="M93.416 136.258c-.089-.245-9.195-24.688-33.023-33.392l.471-1.286c24.441 8.928 33.75 33.96 33.841 34.212l-1.289.466zM93.43 204.542c-.089-.248-9.181-24.918-33.007-33.621l.47-1.286c24.443 8.928 33.736 34.191 33.827 34.445l-1.29.462zM228.844 272.353l-1.288-.467c.091-.252 9.418-25.269 33.857-34.196l.471 1.286c-23.846 8.711-32.95 33.131-33.04 33.377M161.739 272.352l-1.29-.465c.092-.255 9.479-25.518 33.92-34.446l.47 1.286c-23.846 8.712-33.01 33.377-33.1 33.625M228.759 136.474l-1.29-.465c.093-.255 9.473-25.502 33.914-34.431l.471 1.286c-23.847 8.712-33.005 33.362-33.095 33.61"/>
        <path d="M240.177 274.152c-5.41 0-10.066-.896-12.13-1.366l.305-1.334c8.569 1.947 24.661 2.91 30.63-5.833 5.12-7.5 4.635-19.29 2.017-27.069l1.3-.435c2.813 8.36 3.229 20.345-2.184 28.276-2.852 4.178-7.917 6.702-15.051 7.5a44.179 44.179 0 0 1-4.887.261M82.097 274.415a44.15 44.15 0 0 1-4.885-.262c-7.136-.798-12.2-3.321-15.051-7.5-5.404-7.918-4.902-20.333-2.147-28.518l1.3.437c-2.65 7.874-3.16 19.778 1.98 27.31 5.967 8.742 22.06 7.778 30.63 5.832l.303 1.335c-2.063.47-6.72 1.366-12.13 1.366M161.112 69.577l-.557-.71c-3.17-4.041-25.979-5.79-32.816-5.79h-.182c-6.649.034-29.916 1.9-32.94 5.787l-1.082-.84c3.848-4.948 30.374-6.297 34.015-6.315 3.357-.018 28.126 1.132 33.542 5.757 5.127-4.304 30.136-6.009 33.499-5.967 3.518.035 30.573 1.613 34.126 6.546l-1.113.8c-2.688-3.735-25.592-5.904-33.027-5.977-5.49-.029-30.167 2.221-32.93 5.982l-.535.727z"/>
        <path d="M261.965 238.94l-.681-1.188c3.293-1.884 5.98-13.988 6.534-29.435.682-19.007-2.022-34.415-6.576-37.472l-.653-.438.524-.586c5.55-6.224 8.547-37.252 5.344-55.335-1.14-6.429-2.925-10.462-5.163-11.66l.648-1.209c2.659 1.426 4.632 5.676 5.864 12.63 2.985 16.852.761 47.833-5.21 55.917 5.326 4.694 7.162 22.326 6.593 38.2-.448 12.456-2.607 27.936-7.224 30.577M60.323 238.948c-4.616-2.64-6.776-18.117-7.223-30.569-.567-15.776 1.242-33.287 6.491-38.116-4.909-5.028-6.59-25.51-5.643-43.075.37-6.85 1.73-23.053 6.382-25.582l.656 1.203c-2.724 1.48-4.949 11.078-5.67 24.452-.96 17.845.959 39.152 5.738 42.46l.825.57-.833.561c-4.554 3.057-7.26 18.469-6.577 37.478.555 15.445 3.242 27.547 6.535 29.43l-.68 1.188z"/>
        <path d="M263.266 103.652l-.9-1.034c2.028-1.76 3.5-6.637 3.58-11.862.116-7.583-2.481-14.394-7.128-18.684-5.707-5.27-18.348-6.81-31.459-3.83l-.303-1.336c13.53-3.073 26.667-1.403 32.692 4.16 4.932 4.554 7.69 11.739 7.569 19.712-.087 5.672-1.715 10.846-4.051 12.874M135.795 63.44l-.212-1.353c.289-.047 29.218-4.473 52.83-.243l-.241 1.348c-23.389-4.19-52.09.202-52.377.248M125.14 276.692c-19.899 0-31.052-3.624-31.163-3.661l.433-1.3c.11.037 11.317 3.645 31.243 3.59 6.882-.02 15.214-1.165 24.036-2.374 3.69-.508 7.506-1.03 11.44-1.508l.125-.015.122.03c.142.036 14.57 3.518 35.915 3.193 8.351-.125 18.464-1.173 30.917-3.204l.221 1.352c-12.52 2.042-22.699 3.095-31.116 3.221-20.479.313-34.67-2.86-36.14-3.203-3.88.472-7.65.99-11.297 1.49-8.869 1.217-17.245 2.366-24.219 2.388h-.518M59.214 103.646c-2.336-2.029-3.964-7.202-4.05-12.873-.123-7.975 2.635-15.16 7.567-19.713 6.025-5.563 19.164-7.234 32.693-4.16l-.305 1.336c-13.109-2.98-25.75-1.441-31.457 3.83-4.647 4.29-7.245 11.1-7.128 18.685.08 5.224 1.551 10.1 3.58 11.86l-.9 1.035zM94.677 204.637l-1.205-.652c.194-.356 4.818-8.797 11.987-14.09l.815 1.101c-6.918 5.108-11.551 13.557-11.597 13.641"/>
        <path d="M93.113 204.85c-.02-.044-2.06-4.46-4.392-5.52l.567-1.247c2.798 1.273 4.981 5.998 5.072 6.199l-1.247.568zM126.595 170.506c-.036-.07-3.567-6.951-5.957-8.697l.809-1.106c2.653 1.938 6.218 8.886 6.37 9.18l-1.222.623zM160.424 272.51c-.03-.05-3.038-4.871-5.942-6.934l.795-1.116c3.132 2.224 6.184 7.122 6.312 7.328l-1.165.721z"/>
        <path d="M161.702 272.435l-1.216-.632c.096-.183 2.384-4.52 6.478-7.63l.829 1.09c-3.851 2.926-6.069 7.13-6.091 7.172M94.638 272.861l-1.013-.923c.071-.078 1.76-1.924 3.226-3.04l.83 1.089c-1.365 1.04-3.026 2.856-3.043 2.874"/>
        <path d="M93.241 272.904c-.03-.06-3.138-6.115-7.08-11.205l1.084-.837c4.023 5.193 7.186 11.358 7.218 11.42l-1.222.622zM229.23 272.478l-1.26-.54c.118-.276 2.954-6.812 6.893-9.975l.859 1.067c-3.675 2.951-6.464 9.383-6.492 9.448"/>
        <path d="M227.705 271.688c-.005-.065-.565-6.56-4.478-10.966l1.026-.908c4.223 4.756 4.797 11.482 4.819 11.766l-1.367.108zM94.785 272.328l-1.37-.026c.005-.322.18-7.926 2.856-11.957l1.142.756c-2.455 3.698-2.627 11.151-2.628 11.227M305.904 203.037h-4.294c-.79 0-2.066-.07-2.856-.115v.092c.72.371 1.37.789 2.09 1.206l5.06 3.456v-4.639zm1.532-3.826v2.018h4.086v1.808h-4.086v6.657h-1.254l-9.47-6.332v-2.133h9.192v-2.018h1.532zM308.458 196.986c.928-.881 1.764-2.04 1.764-3.78 0-1.786-1.068-3.062-2.716-3.062-1.765 0-2.948 1.206-2.948 4.732h-1.463c0-3.154-1.207-4.198-2.761-4.198-1.44 0-2.345.973-2.345 2.551 0 1.23.626 2.273 1.508 3.154l-1.207 1.02c-1.067-1.136-1.857-2.504-1.857-4.243 0-2.575 1.37-4.43 3.76-4.43 1.789 0 2.925 1.09 3.53 2.69h.092c.418-1.785 1.718-3.2 3.76-3.2 2.623 0 4.225 2.157 4.225 4.87 0 2.365-.998 3.873-2.09 4.87l-1.252-.974zM304.07 178.388c-4.34 0-6.104 1.16-6.104 2.876 0 1.739 1.764 2.9 6.105 2.9 4.34 0 6.197-1.161 6.197-2.9 0-1.716-1.857-2.876-6.197-2.876m0 7.63c-4.968 0-7.637-1.786-7.637-4.754 0-2.946 2.669-4.731 7.637-4.731 4.967 0 7.729 1.785 7.729 4.73 0 2.969-2.762 4.754-7.73 4.754M300.286 169.02v-2.504l5.664-2.042c.836-.278 2.206-.765 3.088-1.02v-.046c-.835-.256-2.623-.88-3.854-1.321l-4.898-1.81v-2.529l11.235-.787v1.948l-5.361.255c-1.207.07-2.646.162-4.016.209v.07c1.021.3 1.927.602 3.643 1.228l5.665 2.157v1.484l-5.548 1.995a84.437 84.437 0 0 1-3.738 1.113v.093c1.323.046 2.81.116 4.04.186l5.315.278v1.878l-11.235-.835zM300.286 154.203v-2.505l5.664-2.04c.836-.278 2.206-.765 3.088-1.021v-.047c-.835-.254-2.623-.881-3.854-1.322l-4.898-1.808v-2.528l11.235-.788v1.948l-5.361.255c-1.207.07-2.646.162-4.016.208v.07c1.021.301 1.927.603 3.643 1.229l5.665 2.157v1.485l-5.548 1.993a83.181 83.181 0 0 1-3.738 1.114v.092c1.323.046 2.81.117 4.04.186l5.315.278v1.879l-11.235-.835zM133.715 328.003v-4.29c0-.788.07-2.064.116-2.853h-.093c-.371.72-.789 1.368-1.207 2.088l-3.459 5.055h4.643zm3.83 1.53h-2.02v4.083h-1.81v-4.082h-6.662v-1.252l6.337-9.462h2.135v9.183h2.02v1.53zM146.852 326.172c0-4.337-1.161-6.1-2.879-6.1-1.74 0-2.902 1.763-2.902 6.1 0 4.336 1.162 6.192 2.902 6.192 1.718 0 2.879-1.856 2.879-6.192m-7.637 0c0-4.964 1.788-7.63 4.758-7.63 2.948 0 4.735 2.666 4.735 7.63 0 4.962-1.787 7.722-4.735 7.722-2.97 0-4.758-2.76-4.758-7.722M158.387 326.172c0-4.337-1.16-6.1-2.878-6.1-1.741 0-2.902 1.763-2.902 6.1 0 4.336 1.161 6.192 2.902 6.192 1.717 0 2.878-1.856 2.878-6.192m-7.636 0c0-4.964 1.787-7.63 4.758-7.63 2.948 0 4.735 2.666 4.735 7.63 0 4.962-1.787 7.722-4.735 7.722-2.971 0-4.758-2.76-4.758-7.722M167.763 322.391h2.507l2.043 5.66c.279.834.766 2.202 1.022 3.083h.046c.255-.834.882-2.62 1.323-3.85l1.81-4.893h2.53l.79 11.225h-1.95l-.255-5.357c-.07-1.206-.163-2.645-.21-4.013h-.069c-.302 1.022-.603 1.926-1.23 3.64l-2.159 5.66h-1.485l-1.997-5.542a84.243 84.243 0 0 1-1.114-3.735h-.093a197.836 197.836 0 0 1-.186 4.036l-.278 5.31h-1.88l.835-11.224zM182.595 322.391h2.506l2.044 5.66c.278.834.766 2.202 1.021 3.083h.046c.256-.834.882-2.62 1.323-3.85l1.81-4.893h2.53l.79 11.225h-1.95l-.255-5.357c-.07-1.206-.163-2.645-.209-4.013h-.07c-.301 1.022-.603 1.926-1.23 3.64l-2.158 5.66h-1.486l-1.997-5.542a84.243 84.243 0 0 1-1.114-3.735h-.093a197.836 197.836 0 0 1-.185 4.036l-.279 5.31h-1.88l.836-11.224z"/>
        <g>
            <path d="M121.532 455.27l-1.243-.576.155-.338c.887-1.938 1.724-3.769 6.304-7.234l.827 1.092c-4.303 3.257-5.071 4.936-5.885 6.712l-.158.343zM187.428 456.578l-1.284-.476c2.167-5.843 7.03-8.58 7.236-8.693l.665 1.198c-.047.026-4.632 2.62-6.617 7.97M159.9 481.803c-.03-.035-3.065-3.483-6.904-5.457l.628-1.218c4.078 2.098 7.18 5.626 7.31 5.775l-1.033.9zM98.248 488.604c-2.74-4.25-5.434-6.653-5.46-6.677l.906-1.027c.115.102 2.856 2.54 5.706 6.962l-1.152.742zM127.462 583.059l-.995-.942c3.36-3.543 6.327-7.015 6.357-7.05l1.042.888c-.029.036-3.018 3.534-6.404 7.104M194.9 582.878l-1.197-.664c2.434-4.385 6.327-7.04 8.652-8.627l.772 1.13c-2.225 1.52-5.948 4.06-8.227 8.16M189.832 588.407l-1.268-.516c1.175-2.888 4.883-5.637 5.04-5.753l.813 1.103c-.035.027-3.556 2.637-4.585 5.166M193.499 515.47c-.02-.03-1.912-3.158-6.424-6.71l.848-1.076c4.731 3.725 6.674 6.953 6.755 7.088l-1.18.699z"/>
            <path d="M194.687 515.453l-1.198-.664c.109-.198 2.722-4.847 6.454-6.27l.488 1.28c-3.26 1.243-5.72 5.61-5.744 5.654"/>
            <path d="M187.894 522.551l-1.304-.422c1.469-4.518 6.943-7.487 7.175-7.612l.647 1.208c-.051.027-5.22 2.838-6.518 6.826"/>
            <path d="M200.542 522.388c-.682-2.959-3.759-4.799-6.229-6.277l-.73-.44.713-1.169.72.434c2.695 1.612 6.048 3.618 6.862 7.144l-1.336.308zM92.23 481.768c-.224-.576-3.338-4.408-7.012-6.037l.555-1.251c3.992 1.769 7.592 6.053 7.786 6.961l-1.341.286.67-.143-.659.184z"/>
            <path d="M86.181 490.262l-1.269-.515c2.039-5.014 8.069-8.607 8.325-8.758l.696 1.18c-.06.035-5.888 3.512-7.752 8.093"/>
            <path d="M94.15 481.967l-1.13-.775c2.052-2.989 3.813-5.322 7.801-8.138l.792 1.118c-3.802 2.686-5.492 4.924-7.464 7.795M85.85 557.327l-1.248-.565c1.859-4.094 8.265-8.255 8.537-8.43l.742 1.15c-.064.04-6.339 4.12-8.03 7.845"/>
            <path d="M101.135 557.44c-4.187-5.843-8.38-7.865-8.422-7.884l.58-1.24c.184.085 4.542 2.167 8.956 8.327l-1.114.797zM119.417 593.066l-1.312-.395c2.102-6.968 8.153-10.654 8.41-10.808l.704 1.175c-.057.035-5.857 3.58-7.802 10.028"/>
            <path d="M126.14 583.012c-.03-.034-3.153-3.48-6.466-6.573l.937-1c3.356 3.134 6.515 6.62 6.546 6.656l-1.016.917zM132.645 522.817c-.695-2.361-4.722-5.97-6.215-7.161l.856-1.07c.232.186 5.714 4.587 6.674 7.845l-1.315.386zM126.085 515.754c-.03-.033-3.054-3.283-5.96-4.87l.658-1.201c3.106 1.695 6.18 5.003 6.309 5.142l-1.007.93z"/>
            <path d="M127.32 515.627l-.924-1.012.495-.451c2.303-2.102 2.719-2.481 6.646-5.27l.793 1.116c-3.858 2.74-4.212 3.063-6.514 5.165l-.497.452z"/>
            <path d="M121.199 523.204l-1.324-.351c.748-2.816 6.163-7.674 6.778-8.22l.908 1.026c-1.585 1.405-5.818 5.497-6.362 7.545M159.647 549.302c-.022-.031-2.284-3.163-5.173-5.919l.947-.99c2.985 2.847 5.245 5.978 5.34 6.11l-1.114.799z"/>
            <path d="M166.935 556.103c-2.151-3.225-7.069-6.602-7.117-6.635l.772-1.131c.21.144 5.187 3.56 7.486 7.007l-1.141.76z"/>
            <path d="M161.673 549.32l-1.269-.518c.05-.122 1.282-3.058 6.628-6.094l.678 1.19c-4.88 2.771-6.025 5.395-6.037 5.421"/>
            <path d="M152.7 557.245l-1.2-.661c2.311-4.196 8.492-8.103 8.754-8.267l.728 1.16c-.06.038-6.142 3.884-8.282 7.768M220.004 559.28l-1.324-.351c1.817-6.858 8.406-10.59 8.686-10.744l.667 1.196c-.064.035-6.362 3.614-8.029 9.898M193.24 582.931c-.036-.053-3.727-5.267-8.83-6.97l.435-1.299c5.54 1.85 9.36 7.257 9.52 7.486l-1.124.783z"/>
            <path d="M200.201 589.772c-2.555-4.434-6.672-6.602-6.712-6.625l.628-1.216c.182.094 4.509 2.361 7.273 7.158l-1.189.683zM193.497 448.239c-.037-.052-3.756-5.206-8.595-5.79l.165-1.36c5.447.658 9.382 6.125 9.548 6.358l-1.118.792zM199.124 454.898c-1.446-2.983-5.321-6.365-5.36-6.399l.899-1.033c.167.145 4.124 3.597 5.694 6.835l-1.233.597zM133.088 589.96c-1.9-3.236-4.066-4.894-5.499-5.991-.43-.33-.8-.614-1.087-.876l.925-1.011c.262.24.602.497.997.8 1.517 1.161 3.811 2.918 5.847 6.386l-1.183.692zM227.918 481.952l-.187-1.357c-.063.008-.098.027-.1.028.112-.06.428-.38.68-.636 1.146-1.16 3.28-3.321 6.839-3.87l.209 1.353c-3.11.48-4.965 2.357-6.072 3.479-.58.587-.93.942-1.37 1.003"/>
            <path d="M220.951 489.884l-1.133-.77c4.486-6.59 7.439-8.165 7.562-8.229l.63 1.216-.315-.608.318.607c-.028.014-2.812 1.542-7.062 7.784"/>
            <path d="M233.576 488.874c-.787-3.386-6.187-6.765-6.242-6.799l.721-1.164c.242.15 5.94 3.712 6.856 7.654l-1.335.31zM167.498 489.546c-2.515-4.878-7.361-7.566-7.41-7.593l.658-1.2c.214.116 5.266 2.919 7.97 8.166l-1.218.627zM59.337 582.645l-1.254-.554c.096-.214 9.797-21.599 34.898-33.908l.604 1.23c-24.659 12.092-34.155 33.022-34.248 33.232"/>
            <path d="M92.978 616.77c-.224-.097-22.626-9.865-34.876-34.1l1.224-.618c12.026 23.795 33.97 33.363 34.19 33.457l-.538 1.26zM193.485 515.445c-.128-.236-12.925-23.718-33.374-33.496l.592-1.235c20.86 9.973 33.86 33.844 33.989 34.083l-1.207.648zM261.66 448.128c-.1-.245-10.314-24.683-34.222-33.297l.465-1.288c24.494 8.825 34.925 33.817 35.026 34.068l-1.269.517zM59.278 448.027l-1.269-.519c.103-.25 10.551-25.162 35.046-33.986l.464 1.288c-23.91 8.613-34.14 32.973-34.241 33.217M228.012 616.835l-.57-1.245c.245-.112 24.713-11.519 34.255-33.503l1.258.544c-9.755 22.475-34.691 34.09-34.943 34.204"/>
            <path d="M126.628 622.437c-9.621 0-19.178-1.879-33.554-5.635l.347-1.325c28.792 7.524 37.545 7.52 66.886-.028l.343 1.326c-14.676 3.775-24.382 5.662-34.022 5.662M67.746 599.839c-6.039-5.458-9.61-16.456-9.758-16.922l1.305-.416c.036.11 3.609 11.114 9.372 16.322l-.92 1.016zM127.328 515.445l-1.207-.648c.129-.24 13.13-24.11 33.99-34.083l.592 1.235c-20.45 9.778-33.247 33.26-33.375 33.496M194.692 515.445l-1.207-.648c.127-.238 13.054-23.948 33.914-33.921l.592 1.235c-20.45 9.777-33.173 33.1-33.3 33.334"/>
            <path d="M261.622 515.48c-.136-.236-13.762-23.587-34.223-33.37l.592-1.234c20.85 9.969 34.682 33.681 34.82 33.92l-1.19.683zM126.318 515.527c-.127-.236-12.923-23.718-33.373-33.496l.592-1.235c20.86 9.973 33.86 33.844 33.988 34.083l-1.207.648z"/>
            <path d="M59.326 515.507l-1.19-.68c.137-.24 13.958-24.06 34.81-34.03l.59 1.235c-20.47 9.786-34.075 33.24-34.21 33.475M93.887 549.122l-1.207-.648c.128-.24 13.129-24.11 33.988-34.083l.592 1.235c-20.45 9.778-33.246 33.26-33.373 33.496M227.166 549.234c-.128-.236-12.923-23.718-33.374-33.496l.592-1.235c20.86 9.974 33.86 33.844 33.989 34.084l-1.207.647z"/>
            <path d="M228.285 549.14l-1.189-.683c.138-.24 13.974-23.968 34.824-33.937l.592 1.235c-20.461 9.782-34.092 33.15-34.227 33.385M92.69 549.14c-.136-.235-13.795-23.573-34.255-33.356l.591-1.234c20.85 9.968 34.713 33.667 34.852 33.906l-1.188.684zM159.858 549.102c-.128-.236-12.923-23.718-33.373-33.496l.591-1.235c20.86 9.974 33.86 33.844 33.99 34.084l-1.208.647z"/>
            <path d="M161.225 549.217l-1.213-.64c.128-.24 12.973-24.23 33.835-34.205l.592 1.235c-20.46 9.78-33.09 33.372-33.214 33.61M126.36 582.911c-.127-.235-12.922-23.718-33.373-33.495l.592-1.235c20.86 9.973 33.86 33.843 33.989 34.083l-1.207.647z"/>
            <path d="M127.405 582.63l-1.205-.652c.13-.237 13.108-23.845 33.966-33.817l.59 1.235c-20.461 9.783-33.224 33-33.35 33.234"/>
            <path d="M193.471 582.77c-.126-.235-12.856-23.597-33.305-33.375l.591-1.234c20.86 9.973 33.794 33.722 33.921 33.961l-1.207.647z"/>
            <path d="M194.678 582.77l-1.207-.648c.129-.24 13.141-24.108 34-34.082l.593 1.235c-20.46 9.783-33.258 33.26-33.386 33.495"/>
            <path d="M261.625 582.893c-.135-.238-13.696-23.836-34.153-33.618l.591-1.235c20.853 9.97 34.618 33.937 34.754 34.177l-1.192.676zM92.648 481.757c-.137-.235-13.84-23.59-34.3-33.372l.591-1.235c20.849 9.968 34.757 33.682 34.895 33.92l-1.186.687z"/>
            <path d="M93.844 481.739l-1.207-.65c.129-.237 13.072-23.909 33.93-33.882l.592 1.235c-20.461 9.783-33.19 33.063-33.315 33.297"/>
            <path d="M160.002 481.74c-.128-.233-12.984-23.52-33.434-33.298l.591-1.236c20.858 9.974 33.916 33.643 34.047 33.88l-1.204.655z"/>
            <path d="M161.078 481.508l-1.205-.653c.129-.235 13.03-23.657 33.887-33.63l.591 1.235c-20.45 9.778-33.147 32.817-33.273 33.048"/>
            <path d="M227.14 481.667c-.126-.233-12.929-23.429-33.38-33.207l.592-1.234c20.858 9.972 33.864 33.55 33.993 33.787l-1.205.654z"/>
            <path d="M228.288 481.836l-1.187-.686c.139-.239 14.05-23.93 34.898-33.898l.592 1.235c-20.472 9.788-34.167 33.114-34.303 33.35M227.123 616.536c-.127-.236-12.924-23.719-33.374-33.496l.592-1.235c20.86 9.974 33.86 33.844 33.99 34.084l-1.208.647zM159.945 616.563c-.128-.235-12.923-23.717-33.374-33.495l.592-1.235c20.86 9.973 33.86 33.843 33.989 34.083l-1.207.647z"/>
            <path d="M93.85 616.463l-1.207-.647c.128-.24 13.065-24.01 33.926-33.984l.59 1.236c-20.448 9.777-33.182 33.16-33.308 33.395M160.967 616.536l-1.207-.647c.128-.24 13.13-24.11 33.989-34.084l.591 1.235c-20.449 9.777-33.246 33.26-33.373 33.496M193.479 448.127c-.127-.244-12.84-24.436-33.283-34.211l.591-1.235c20.865 9.976 33.78 34.57 33.91 34.817l-1.218.629z"/>
            <path d="M194.66 448.167l-1.207-.649c.128-.238 13.08-23.985 33.942-33.957l.59 1.235c-20.45 9.777-33.199 33.136-33.326 33.37M126.259 448.147c-.042-.079-4.3-7.96-11.781-16.406-6.808-7.69-14.037-13.396-21.486-16.958l.59-1.235c7.618 3.642 14.994 9.457 21.924 17.285 7.59 8.574 11.918 16.589 11.962 16.668l-1.209.646zM194.103 622.493c-9.511 0-18.966-1.904-33.795-5.718l.341-1.327c29.25 7.525 37.38 7.538 66.911.1l.334 1.328c-14.857 3.742-24.351 5.617-33.79 5.617M262.893 582.69l-1.343-.27c6.108-30.283 7.56-37.478-.02-67.03l1.328-.339c7.657 29.855 6.193 37.109.035 67.64"/>
            <path d="M262.858 515.39l-1.328-.34c7.388-28.805 6.428-35.63.094-67.045l1.342-.27c6.389 31.672 7.355 38.555-.108 67.656M93.473 414.825l-.372-1.318c29.566-8.31 38.415-8.429 67.636-.912l-.343 1.325c-28.911-7.436-37.67-7.318-66.921.905"/>
            <path d="M227.486 414.847c-29.979-8.354-37.465-8.458-66.75-.926l-.341-1.326c29.598-7.613 37.164-7.509 67.46.933l-.369 1.319zM58.044 582.588c-6.157-30.532-7.62-37.787.035-67.639l1.328.34c-7.578 29.55-6.127 36.744-.02 67.029l-1.343.27z"/>
            <path d="M58.08 515.289c-7.464-29.102-6.498-35.985-.108-67.657l1.342.27c-6.335 31.414-7.295 38.24.093 67.046l-1.328.34zM79.368 618.615c-7.613 0-13.183-2.15-17.618-6.587-6.576-6.58-7.75-16.04-3.691-29.769l1.314.387c-3.9 13.198-2.836 22.226 3.348 28.415 6.42 6.423 15.506 7.743 30.376 4.41l.3 1.336c-5.346 1.198-9.977 1.808-14.03 1.808M241.606 618.688c-4.052 0-8.683-.61-14.03-1.808l.301-1.335c14.87 3.332 23.955 2.013 30.376-4.411 6.184-6.19 7.248-15.218 3.348-28.414l1.314-.388c4.057 13.728 2.885 23.187-3.691 29.77-4.434 4.435-10.006 6.586-17.618 6.586M127.444 448.187l-1.161-.726c.132-.211 13.456-21.28 34.178-34.698l.746 1.148c-20.46 13.25-33.631 34.067-33.763 34.276"/>
            <path d="M57.986 447.962c-4.058-13.73-2.885-23.189 3.69-29.77 6.762-6.765 16.26-8.168 31.76-4.694l-.299 1.336c-14.984-3.359-24.103-2.064-30.49 4.326-6.183 6.188-7.247 15.217-3.347 28.414l-1.314.388zM262.952 448.063l-1.314-.387c3.9-13.197 2.837-22.225-3.348-28.415-6.43-6.434-15.544-7.75-30.47-4.405l-.3-1.337c15.443-3.46 24.935-2.033 31.74 4.775 6.576 6.582 7.75 16.041 3.692 29.77M254.094 598.928l-.978-.958c5.035-5.131 8.561-15.536 8.596-15.641l1.3.434c-.147.439-3.66 10.807-8.918 16.165"/>
            <path d="M59.312 447.92l-1.338-.304c.109-.47 2.68-11.56 7.776-17.028l1.003.932c-4.842 5.197-7.417 16.288-7.441 16.4M78.466 420.957l-.9-1.033c6.928-6.025 15.339-6.428 15.694-6.443l.055 1.369c-.081.003-8.296.407-14.85 6.107"/>
            <path d="M84.635 414.828l-.034-1.37c3.56-.088 8.11-.095 8.154-.095l.002 1.37c-.045 0-4.579.006-8.122.095M242.511 420.969c-6.553-5.699-14.768-6.104-14.849-6.107l.055-1.368c.355.014 8.766.417 15.693 6.442l-.899 1.033z"/>
            <path d="M236.342 414.84a409.488 409.488 0 0 0-8.122-.095l.002-1.369c.045 0 4.594.006 8.154.095l-.034 1.369zM93.01 616.823c-.36-.086-8.85-2.133-11.917-4.628l.864-1.061c2.825 2.298 11.285 4.336 11.371 4.357l-.319 1.332zM227.982 616.79l-.448-1.294c.084-.03 8.357-2.883 11.628-4.378l.57 1.245c-3.332 1.523-11.408 4.31-11.75 4.427M261.626 448.021c-.024-.11-2.6-11.202-7.442-16.4l1.003-.932c5.096 5.468 7.668 16.56 7.777 17.03l-1.338.302zM155.584 487.581l-1.148-.748c1.557-2.384 5.36-5.842 5.52-5.987l.922 1.014c-.038.034-3.833 3.484-5.294 5.721"/>
            <path d="M161.296 481.833l-1.212-.638c.109-.207 2.72-5.091 6.511-6.116l.359 1.321c-3.214.869-5.634 5.388-5.658 5.433M94.206 549.316l-1.239-.585c.07-.148 1.766-3.614 6.665-4.192l.16 1.36c-4.154.49-5.572 3.388-5.586 3.417M235.558 558.54c-1.524-4.408-8.114-9.021-8.18-9.067l.783-1.125c.285.198 7.022 4.912 8.693 9.745l-1.296.447z"/>
            <path d="M228.281 549.117l-1.02-.916c.184-.201 4.487-4.948 8.259-6.079l.395 1.312c-3.404 1.02-7.591 5.637-7.634 5.683M227.13 481.881c-.039-.057-3.937-5.684-7.413-7.382l.603-1.23c3.8 1.856 7.772 7.594 7.94 7.836l-1.13.776z"/>
            <path d="M227.099 549.104c-.024-.035-2.505-3.495-6.171-4.579l.389-1.314c4.133 1.223 6.791 4.947 6.903 5.105l-1.121.788zM194.737 448.423l-1.048-.882c.107-.128 2.67-3.155 4.54-4.018l.574 1.242c-1.321.611-3.383 2.848-4.066 3.658M132.003 455.628c-1.27-4.838-5.622-7.064-5.666-7.085l.61-1.226c.201.1 4.95 2.508 6.382 7.964l-1.326.347z"/>
            <path d="M127.784 448.588l-1.187-.684c.067-.116 1.682-2.866 5.958-5.49l.717 1.167c-3.954 2.426-5.472 4.982-5.488 5.007"/>
            <path d="M126.22 448.423c-.036-.042-3.62-4.313-7.346-6.114l.597-1.233c3.995 1.932 7.65 6.287 7.803 6.471l-1.054.876zM92.213 549.374c-.015-.028-1.638-2.794-4.978-4.384l.588-1.235c3.744 1.78 5.507 4.811 5.58 4.939l-1.19.68zM140.116 409.452l-.185-1.357c7.763-1.057 32.411-1.776 41.556-.088l-.25 1.346c-9.03-1.668-33.429-.947-41.121.1M53.67 535.84c-1.053-7.777-1.773-32.465-.088-41.619l1.349.249c-1.664 9.04-.947 33.479.098 41.186l-1.358.184zM267.24 535.98l-1.359-.183c1.045-7.707 1.762-32.144.098-41.187l1.349-.247c1.684 9.156.965 33.842-.089 41.618M163.496 622.4c-9.401 0-19.313-.493-23.738-1.095l.185-1.357c7.693 1.047 32.092 1.766 41.121.1l.25 1.346c-3.932.726-10.73 1.006-17.818 1.006M317.075 420.82v188.391l.129-.01.387-.041.385-.054.386-.067.385-.078.384-.09.386-.102.386-.114.386-.128.385-.138.386-.15.385-.162.386-.175.385-.187-6.168 14.38-6.168-14.38.386.187.385.175.385.162.386.15.386.138.385.128.385.114.386.102.385.09.385.078.387.067.385.054.386.041.127.01v-188.39l-.127.01-.386.042-.385.053-.387.067-.385.078-.385.09-.386.103-.385.115-.385.125-.386.14-.386.15-.385.162-.385.174-.386.187 6.168-14.38 6.168 14.38-.385-.187-.386-.174-.385-.163-.386-.15-.385-.139-.386-.125-.386-.115-.386-.103-.384-.09-.385-.078-.386-.067-.385-.053-.387-.042-.129-.01z"/>
            <path d="M304.382 542.413h-4.294c-.79 0-2.066-.07-2.856-.116v.093c.72.371 1.37.789 2.09 1.206l5.06 3.456v-4.639zm1.532-3.826v2.018H310v1.808h-4.086v6.657h-1.254l-9.47-6.332v-2.133h9.192v-2.018h1.532zM302.548 529.289c-4.34 0-6.105 1.16-6.105 2.875 0 1.74 1.764 2.9 6.105 2.9 4.34 0 6.198-1.16 6.198-2.9 0-1.716-1.857-2.875-6.198-2.875m0 7.629c-4.967 0-7.637-1.786-7.637-4.754 0-2.945 2.67-4.73 7.637-4.73 4.968 0 7.73 1.785 7.73 4.73 0 2.968-2.762 4.754-7.73 4.754M302.548 517.764c-4.34 0-6.105 1.16-6.105 2.875 0 1.74 1.764 2.9 6.105 2.9 4.34 0 6.198-1.16 6.198-2.9 0-1.716-1.857-2.875-6.198-2.875m0 7.63c-4.967 0-7.637-1.786-7.637-4.755 0-2.945 2.67-4.73 7.637-4.73 4.968 0 7.73 1.785 7.73 4.73 0 2.969-2.762 4.754-7.73 4.754M298.764 508.396v-2.504l5.664-2.042c.836-.278 2.206-.765 3.088-1.02v-.046c-.836-.256-2.623-.88-3.854-1.321l-4.898-1.81v-2.529l11.235-.787v1.948l-5.363.255c-1.206.07-2.645.162-4.015.209v.07c1.022.3 1.927.602 3.644 1.228l5.664 2.157v1.484l-5.547 1.995a84.827 84.827 0 0 1-3.738 1.113v.093c1.324.046 2.81.116 4.04.185l5.315.279v1.878l-11.235-.835zM298.764 493.579v-2.505l5.664-2.04c.836-.278 2.206-.765 3.088-1.021v-.047c-.836-.254-2.623-.881-3.854-1.322l-4.898-1.808v-2.528L310 481.52v1.948l-5.363.255c-1.206.07-2.645.162-4.015.208v.07c1.022.301 1.927.603 3.644 1.229l5.664 2.157v1.485l-5.547 1.993a83.56 83.56 0 0 1-3.738 1.114v.092c1.324.046 2.81.117 4.04.186l5.315.278v1.879l-11.235-.835z"/>
        </g>
    </g>
</svg>
