<svg xmlns="http://www.w3.org/2000/svg" xmlns:xlink="http://www.w3.org/1999/xlink" width="270" height="223" viewBox="0 0 270 223">
    <defs>
        <path id="a" d="M0 0h270v223H0z"/>
    </defs>
    <g fill="none" fill-rule="evenodd">
        <mask id="b" fill="#fff">
            <use xlink:href="#a"/>
        </mask>
        <use fill="#CAB08D" xlink:href="#a"/>
        <g fill="#000" fill-rule="nonzero" mask="url(#b)" opacity=".05">
            <path d="M253.258 78a2.715 2.715 0 0 1-1.873-.744L219.863 47.73a2.729 2.729 0 0 1-.12-3.861 2.73 2.73 0 0 1 3.872-.12l31.522 29.526a2.729 2.729 0 0 1 .12 3.862 2.734 2.734 0 0 1-1.999.864zM148.741 78c-.728 0-1.457-.29-1.999-.864a2.73 2.73 0 0 1 .12-3.863l31.524-29.532c1.106-1.028 2.842-.985 3.872.12a2.73 2.73 0 0 1-.12 3.863l-31.524 29.532c-.526.498-1.2.744-1.873.744z"/>
            <path d="M271.457 105H130.543C123.078 105 117 98.898 117 91.393V-1.393C117-8.898 123.078-15 130.543-15h140.914C278.922-15 285-8.898 285-1.393v92.786c0 7.505-6.078 13.607-13.543 13.607zM130.543-9.557c-4.48 0-8.126 3.663-8.126 8.164v92.786c0 4.501 3.646 8.164 8.126 8.164h140.914c4.48 0 8.126-3.663 8.126-8.164V-1.393c0-4.501-3.646-8.164-8.126-8.164H130.543z"/>
            <path d="M201.545 59c-3.608 0-7.215-1.197-9.96-3.586L121.931-5.254a2.712 2.712 0 0 1-.266-3.824 2.732 2.732 0 0 1 3.83-.26l69.654 60.663c3.467 3.017 9.325 3.017 12.786 0l69.568-60.566a2.712 2.712 0 1 1 3.57 4.084L211.504 55.41c-2.75 2.394-6.353 3.591-9.96 3.591z"/>
        </g>
    </g>
</svg>
